<svg width="25" height="24" viewBox="0 0 25 24" fill="none" xmlns="http://www.w3.org/2000/svg">
<path opacity="0.964" fill-rule="evenodd" clip-rule="evenodd" d="M12.0547 1.19531C14.4071 1.133 16.2117 2.08612 17.4687 4.05469C18.4828 5.96845 18.4985 7.89033 17.5156 9.82031C16.1783 11.946 14.2486 12.9069 11.7266 12.7031C9.37188 12.3035 7.78596 10.9832 6.96874 8.74219C6.32243 6.30333 6.92398 4.23301 8.77343 2.53125C9.73652 1.76051 10.8303 1.31519 12.0547 1.19531ZM12.1484 2.74219C14.0775 2.71801 15.476 3.56176 16.3437 5.27344C17.0743 7.28395 16.629 8.97928 15.0078 10.3594C13.3203 11.5156 11.6328 11.5156 9.94531 10.3594C8.40406 9.06239 7.92748 7.4452 8.51562 5.50781C9.20927 3.8994 10.4202 2.97753 12.1484 2.74219Z" fill="white"/>
<path opacity="0.962" fill-rule="evenodd" clip-rule="evenodd" d="M11.4453 14.2266C14.4574 13.9788 17.1136 14.8147 19.4141 16.7344C20.9056 18.1083 21.7181 19.8114 21.8516 21.8438C21.8469 22.364 21.5891 22.6687 21.0781 22.7578C20.7222 22.7364 20.4722 22.5645 20.3281 22.2422C20.256 20.1365 19.3575 18.4881 17.6328 17.2969C14.9419 15.6207 12.0981 15.3082 9.10156 16.3594C7.25552 17.0436 5.90398 18.2702 5.04687 20.0391C4.78535 20.733 4.64472 21.4517 4.62499 22.1953C4.46202 22.609 4.15733 22.7887 3.71093 22.7344C3.28598 22.5905 3.08285 22.2936 3.10155 21.8438C3.18728 20.0872 3.82009 18.5637 4.99999 17.2734C6.78298 15.4953 8.9314 14.4797 11.4453 14.2266Z" fill="white"/>
</svg>
